<?xml version="1.0" standalone="no"?>
<!DOCTYPE svg PUBLIC "-//W3C//DTD SVG 20010904//EN"
 "http://www.w3.org/TR/2001/REC-SVG-20010904/DTD/svg10.dtd">
<svg version="1.0" xmlns="http://www.w3.org/2000/svg"
 width="206.000000pt" height="206.000000pt" viewBox="0 0 206.000000 206.000000"
 preserveAspectRatio="xMidYMid meet">
<metadata>
Created by potrace 1.14, written by Peter Selinger 2001-2017
</metadata>
<g transform="translate(0.000000,206.000000) scale(0.100000,-0.100000)"
fill="#000000" stroke="none">
<path d="M836 1863 c-2 -3 -10 -6 -18 -7 -74 -12 -179 -114 -227 -221 -19 -41
-23 -182 -8 -225 44 -123 164 -223 332 -276 151 -48 257 -25 286 63 28 85 9
253 -45 396 -52 138 -105 210 -180 247 -39 18 -129 33 -140 23z"/>
<path d="M1388 1340 c-40 -12 -83 -40 -98 -63 -46 -75 8 -268 124 -445 84
-127 175 -191 274 -193 197 -5 345 286 248 485 -51 104 -141 168 -290 206 -74
18 -213 24 -258 10z"/>
<path d="M187 1159 c-78 -18 -143 -72 -171 -141 -22 -53 -21 -172 3 -223 23
-49 74 -99 123 -119 48 -20 158 -21 205 -1 51 21 103 63 103 82 0 44 -69 55
-137 22 -166 -81 -289 165 -131 261 42 25 78 25 128 0 47 -24 88 -26 118 -4
31 21 28 37 -13 68 -66 51 -155 72 -228 55z"/>
<path d="M497 1132 c-10 -10 -17 -33 -17 -50 0 -31 1 -32 45 -32 l45 0 0 -155
c0 -181 -9 -214 -73 -260 -41 -30 -54 -53 -43 -80 4 -12 13 -12 57 1 76 23
125 59 151 113 20 41 23 64 26 211 l4 166 29 16 c23 14 29 24 29 53 l0 35
-118 0 c-103 0 -121 -3 -135 -18z"/>
<path d="M1044 950 c-114 -66 -252 -260 -298 -422 -68 -231 123 -386 383 -312
98 28 164 85 207 178 90 196 -44 566 -210 581 -23 2 -49 -6 -82 -25z"/>
</g>
</svg>
